# xmcd CD database file
#
# Track frame offsets:
#	150
#	16507
#	42480
#	56937
#	72022
#	89787
#	109075
#	126572
#	148425
#	166960
#
# Disc length: 2413 seconds
#
# Revision: 0
# Processed by: cddbd v1.5.1PL0 Copyright (c) Steve Scherf et al.
# Submitted via: Feurio! 1.67 - http://www.feurio.com
#
DISCID=97096b0a
DTITLE=Little Johnnie Taylor - Part Time Love
DYEAR=1900
DGENRE=blues
TTITLE0=Part Time Love
TTITLE1=You're Gonna Need Another Favor
TTITLE2=True Lovin'
TTITLE3=Future
TTITLE4=I Can't See Myself As A One Woman Man
TTITLE5=I Don't Want It All
TTITLE6=Hard Head
TTITLE7=Found A New Love
TTITLE8=Junkie For Your Love
TTITLE9=When Are You Coming Home
EXTD=
EXTT0=
EXTT1=
EXTT2=
EXTT3=
EXTT4=
EXTT5=
EXTT6=
EXTT7=
EXTT8=
EXTT9=
PLAYORDER=
